<mxfile host="app.diagrams.net" modified="2023-10-28T06:40:23.438Z" agent="Mozilla/5.0 (X11; Linux x86_64) AppleWebKit/537.36 (KHTML, like Gecko) Chrome/118.0.0.0 Safari/537.36" etag="bbuLueK4bMVt2rHJJyN2" version="22.0.8" type="device">
  <diagram name="Page-1" id="MUZItoYiuEd927UIjYYJ">
    <mxGraphModel dx="1364" dy="1879" grid="1" gridSize="10" guides="1" tooltips="1" connect="1" arrows="1" fold="1" page="1" pageScale="1" pageWidth="850" pageHeight="1100" math="0" shadow="0">
      <root>
        <mxCell id="0" />
        <mxCell id="1" parent="0" />
        <mxCell id="PZR-hnzOSEzopJRWZi3C-1" value="" style="rounded=0;whiteSpace=wrap;html=1;strokeWidth=2;fillStyle=hatch;fillColor=#000000;" parent="1" vertex="1">
          <mxGeometry x="160" y="-520" width="490" height="40" as="geometry" />
        </mxCell>
        <mxCell id="PZR-hnzOSEzopJRWZi3C-4" value="" style="rounded=0;whiteSpace=wrap;html=1;strokeWidth=2;fillStyle=hatch;fillColor=#000000;" parent="1" vertex="1">
          <mxGeometry x="160" y="-550" width="10" height="30" as="geometry" />
        </mxCell>
        <mxCell id="PZR-hnzOSEzopJRWZi3C-5" value="" style="rounded=0;whiteSpace=wrap;html=1;strokeWidth=2;fillStyle=hatch;fillColor=#000000;" parent="1" vertex="1">
          <mxGeometry x="240" y="-550" width="10" height="30" as="geometry" />
        </mxCell>
        <mxCell id="PZR-hnzOSEzopJRWZi3C-6" value="" style="rounded=0;whiteSpace=wrap;html=1;strokeWidth=2;fillStyle=hatch;fillColor=#000000;" parent="1" vertex="1">
          <mxGeometry x="320" y="-550" width="10" height="30" as="geometry" />
        </mxCell>
        <mxCell id="PZR-hnzOSEzopJRWZi3C-7" value="" style="rounded=0;whiteSpace=wrap;html=1;strokeWidth=2;fillStyle=hatch;fillColor=#000000;" parent="1" vertex="1">
          <mxGeometry x="400" y="-550" width="10" height="30" as="geometry" />
        </mxCell>
        <mxCell id="PZR-hnzOSEzopJRWZi3C-8" value="" style="rounded=0;whiteSpace=wrap;html=1;strokeWidth=2;fillStyle=hatch;fillColor=#000000;" parent="1" vertex="1">
          <mxGeometry x="480" y="-550" width="10" height="30" as="geometry" />
        </mxCell>
        <mxCell id="PZR-hnzOSEzopJRWZi3C-9" value="" style="rounded=0;whiteSpace=wrap;html=1;strokeWidth=2;fillStyle=hatch;fillColor=#000000;" parent="1" vertex="1">
          <mxGeometry x="560" y="-550" width="10" height="30" as="geometry" />
        </mxCell>
        <mxCell id="PZR-hnzOSEzopJRWZi3C-10" value="" style="rounded=0;whiteSpace=wrap;html=1;strokeWidth=2;fillStyle=hatch;fillColor=#000000;" parent="1" vertex="1">
          <mxGeometry x="640" y="-550" width="10" height="30" as="geometry" />
        </mxCell>
        <mxCell id="PZR-hnzOSEzopJRWZi3C-17" value="" style="endArrow=none;html=1;rounded=0;strokeWidth=2;" parent="1" edge="1">
          <mxGeometry width="50" height="50" relative="1" as="geometry">
            <mxPoint x="164.5" y="-550" as="sourcePoint" />
            <mxPoint x="164.5" y="-640" as="targetPoint" />
          </mxGeometry>
        </mxCell>
        <mxCell id="PZR-hnzOSEzopJRWZi3C-18" value="" style="endArrow=none;html=1;rounded=0;strokeWidth=2;" parent="1" edge="1">
          <mxGeometry width="50" height="50" relative="1" as="geometry">
            <mxPoint x="244.5" y="-550" as="sourcePoint" />
            <mxPoint x="244.5" y="-640" as="targetPoint" />
          </mxGeometry>
        </mxCell>
        <mxCell id="PZR-hnzOSEzopJRWZi3C-19" value="" style="endArrow=none;html=1;rounded=0;strokeWidth=2;" parent="1" edge="1">
          <mxGeometry width="50" height="50" relative="1" as="geometry">
            <mxPoint x="324.5" y="-550" as="sourcePoint" />
            <mxPoint x="324.5" y="-640" as="targetPoint" />
          </mxGeometry>
        </mxCell>
        <mxCell id="PZR-hnzOSEzopJRWZi3C-20" value="" style="endArrow=none;html=1;rounded=0;strokeWidth=2;" parent="1" edge="1">
          <mxGeometry width="50" height="50" relative="1" as="geometry">
            <mxPoint x="404.5" y="-550" as="sourcePoint" />
            <mxPoint x="404.5" y="-640" as="targetPoint" />
          </mxGeometry>
        </mxCell>
        <mxCell id="PZR-hnzOSEzopJRWZi3C-21" value="" style="endArrow=none;html=1;rounded=0;strokeWidth=2;" parent="1" edge="1">
          <mxGeometry width="50" height="50" relative="1" as="geometry">
            <mxPoint x="484.5" y="-550" as="sourcePoint" />
            <mxPoint x="484.5" y="-640" as="targetPoint" />
          </mxGeometry>
        </mxCell>
        <mxCell id="PZR-hnzOSEzopJRWZi3C-22" value="" style="endArrow=none;html=1;rounded=0;strokeWidth=2;" parent="1" edge="1">
          <mxGeometry width="50" height="50" relative="1" as="geometry">
            <mxPoint x="564.5" y="-550" as="sourcePoint" />
            <mxPoint x="564.5" y="-640" as="targetPoint" />
          </mxGeometry>
        </mxCell>
        <mxCell id="PZR-hnzOSEzopJRWZi3C-23" value="" style="endArrow=none;html=1;rounded=0;strokeWidth=2;" parent="1" edge="1">
          <mxGeometry width="50" height="50" relative="1" as="geometry">
            <mxPoint x="644.5" y="-550" as="sourcePoint" />
            <mxPoint x="644.5" y="-640" as="targetPoint" />
          </mxGeometry>
        </mxCell>
        <mxCell id="PZR-hnzOSEzopJRWZi3C-24" value="" style="rounded=0;whiteSpace=wrap;html=1;strokeWidth=2;fillStyle=hatch;fillColor=#000000;" parent="1" vertex="1">
          <mxGeometry x="160" y="-320" width="470" height="40" as="geometry" />
        </mxCell>
        <mxCell id="PZR-hnzOSEzopJRWZi3C-25" value="" style="rounded=0;whiteSpace=wrap;html=1;strokeWidth=2;fillStyle=hatch;fillColor=#000000;" parent="1" vertex="1">
          <mxGeometry x="160" y="-350" width="10" height="30" as="geometry" />
        </mxCell>
        <mxCell id="PZR-hnzOSEzopJRWZi3C-27" value="" style="rounded=0;whiteSpace=wrap;html=1;strokeWidth=2;fillStyle=hatch;fillColor=#000000;" parent="1" vertex="1">
          <mxGeometry x="251" y="-350" width="10" height="30" as="geometry" />
        </mxCell>
        <mxCell id="PZR-hnzOSEzopJRWZi3C-28" value="" style="rounded=0;whiteSpace=wrap;html=1;strokeWidth=2;fillStyle=hatch;fillColor=#000000;" parent="1" vertex="1">
          <mxGeometry x="341" y="-350" width="10" height="30" as="geometry" />
        </mxCell>
        <mxCell id="PZR-hnzOSEzopJRWZi3C-29" value="" style="rounded=0;whiteSpace=wrap;html=1;strokeWidth=2;fillStyle=hatch;fillColor=#000000;" parent="1" vertex="1">
          <mxGeometry x="429" y="-350" width="10" height="30" as="geometry" />
        </mxCell>
        <mxCell id="PZR-hnzOSEzopJRWZi3C-31" value="" style="rounded=0;whiteSpace=wrap;html=1;strokeWidth=2;fillStyle=hatch;fillColor=#000000;" parent="1" vertex="1">
          <mxGeometry x="522" y="-350" width="10" height="30" as="geometry" />
        </mxCell>
        <mxCell id="PZR-hnzOSEzopJRWZi3C-32" value="" style="endArrow=none;html=1;rounded=0;strokeWidth=2;" parent="1" edge="1">
          <mxGeometry width="50" height="50" relative="1" as="geometry">
            <mxPoint x="164.5" y="-350" as="sourcePoint" />
            <mxPoint x="190" y="-440" as="targetPoint" />
          </mxGeometry>
        </mxCell>
        <mxCell id="PZR-hnzOSEzopJRWZi3C-34" value="" style="endArrow=none;html=1;rounded=0;strokeWidth=2;" parent="1" edge="1">
          <mxGeometry width="50" height="50" relative="1" as="geometry">
            <mxPoint x="257.5" y="-350" as="sourcePoint" />
            <mxPoint x="283" y="-440" as="targetPoint" />
          </mxGeometry>
        </mxCell>
        <mxCell id="PZR-hnzOSEzopJRWZi3C-35" value="" style="endArrow=none;html=1;rounded=0;strokeWidth=2;" parent="1" edge="1">
          <mxGeometry width="50" height="50" relative="1" as="geometry">
            <mxPoint x="346.5" y="-350" as="sourcePoint" />
            <mxPoint x="372" y="-440" as="targetPoint" />
          </mxGeometry>
        </mxCell>
        <mxCell id="PZR-hnzOSEzopJRWZi3C-36" value="" style="endArrow=none;html=1;rounded=0;strokeWidth=2;" parent="1" edge="1">
          <mxGeometry width="50" height="50" relative="1" as="geometry">
            <mxPoint x="435.5" y="-350" as="sourcePoint" />
            <mxPoint x="461" y="-440" as="targetPoint" />
          </mxGeometry>
        </mxCell>
        <mxCell id="PZR-hnzOSEzopJRWZi3C-38" value="" style="endArrow=none;html=1;rounded=0;strokeWidth=2;" parent="1" edge="1">
          <mxGeometry width="50" height="50" relative="1" as="geometry">
            <mxPoint x="528.5" y="-350" as="sourcePoint" />
            <mxPoint x="554" y="-440" as="targetPoint" />
          </mxGeometry>
        </mxCell>
        <mxCell id="PZR-hnzOSEzopJRWZi3C-39" value="" style="rounded=0;whiteSpace=wrap;html=1;strokeWidth=2;fillStyle=hatch;fillColor=#000000;" parent="1" vertex="1">
          <mxGeometry x="160" y="-120" width="490" height="40" as="geometry" />
        </mxCell>
        <mxCell id="PZR-hnzOSEzopJRWZi3C-40" value="" style="rounded=0;whiteSpace=wrap;html=1;strokeWidth=2;fillStyle=hatch;fillColor=#000000;" parent="1" vertex="1">
          <mxGeometry x="175" y="-150" width="10" height="30" as="geometry" />
        </mxCell>
        <mxCell id="PZR-hnzOSEzopJRWZi3C-42" value="" style="rounded=0;whiteSpace=wrap;html=1;strokeWidth=2;fillStyle=hatch;fillColor=#000000;" parent="1" vertex="1">
          <mxGeometry x="285" y="-150" width="10" height="30" as="geometry" />
        </mxCell>
        <mxCell id="PZR-hnzOSEzopJRWZi3C-44" value="" style="rounded=0;whiteSpace=wrap;html=1;strokeWidth=2;fillStyle=hatch;fillColor=#000000;" parent="1" vertex="1">
          <mxGeometry x="394" y="-150" width="10" height="30" as="geometry" />
        </mxCell>
        <mxCell id="PZR-hnzOSEzopJRWZi3C-46" value="" style="rounded=0;whiteSpace=wrap;html=1;strokeWidth=2;fillStyle=hatch;fillColor=#000000;" parent="1" vertex="1">
          <mxGeometry x="509" y="-150" width="10" height="30" as="geometry" />
        </mxCell>
        <mxCell id="PZR-hnzOSEzopJRWZi3C-47" value="" style="endArrow=none;html=1;rounded=0;strokeWidth=2;" parent="1" edge="1">
          <mxGeometry width="50" height="50" relative="1" as="geometry">
            <mxPoint x="179.5" y="-150" as="sourcePoint" />
            <mxPoint x="235" y="-240" as="targetPoint" />
          </mxGeometry>
        </mxCell>
        <mxCell id="PZR-hnzOSEzopJRWZi3C-49" value="" style="endArrow=none;html=1;rounded=0;strokeWidth=2;" parent="1" edge="1">
          <mxGeometry width="50" height="50" relative="1" as="geometry">
            <mxPoint x="290.5" y="-150" as="sourcePoint" />
            <mxPoint x="346" y="-240" as="targetPoint" />
          </mxGeometry>
        </mxCell>
        <mxCell id="PZR-hnzOSEzopJRWZi3C-51" value="" style="endArrow=none;html=1;rounded=0;strokeWidth=2;" parent="1" edge="1">
          <mxGeometry width="50" height="50" relative="1" as="geometry">
            <mxPoint x="399.5" y="-150" as="sourcePoint" />
            <mxPoint x="455" y="-240" as="targetPoint" />
          </mxGeometry>
        </mxCell>
        <mxCell id="PZR-hnzOSEzopJRWZi3C-53" value="" style="endArrow=none;html=1;rounded=0;strokeWidth=2;" parent="1" edge="1">
          <mxGeometry width="50" height="50" relative="1" as="geometry">
            <mxPoint x="625.5" y="-150" as="sourcePoint" />
            <mxPoint x="681" y="-240" as="targetPoint" />
          </mxGeometry>
        </mxCell>
        <mxCell id="PZR-hnzOSEzopJRWZi3C-54" value="" style="rounded=0;whiteSpace=wrap;html=1;strokeWidth=2;fillStyle=hatch;fillColor=#000000;" parent="1" vertex="1">
          <mxGeometry x="160" y="-720" width="520" height="40" as="geometry" />
        </mxCell>
        <mxCell id="PZR-hnzOSEzopJRWZi3C-55" value="" style="rounded=0;whiteSpace=wrap;html=1;strokeWidth=2;fillStyle=hatch;fillColor=#000000;" parent="1" vertex="1">
          <mxGeometry x="160" y="-750" width="10" height="30" as="geometry" />
        </mxCell>
        <mxCell id="PZR-hnzOSEzopJRWZi3C-56" value="" style="rounded=0;whiteSpace=wrap;html=1;strokeWidth=2;fillStyle=hatch;fillColor=#000000;" parent="1" vertex="1">
          <mxGeometry x="227" y="-750" width="10" height="30" as="geometry" />
        </mxCell>
        <mxCell id="PZR-hnzOSEzopJRWZi3C-57" value="" style="rounded=0;whiteSpace=wrap;html=1;strokeWidth=2;fillStyle=hatch;fillColor=#000000;" parent="1" vertex="1">
          <mxGeometry x="289" y="-750" width="10" height="30" as="geometry" />
        </mxCell>
        <mxCell id="PZR-hnzOSEzopJRWZi3C-58" value="" style="rounded=0;whiteSpace=wrap;html=1;strokeWidth=2;fillStyle=hatch;fillColor=#000000;" parent="1" vertex="1">
          <mxGeometry x="414" y="-750" width="10" height="30" as="geometry" />
        </mxCell>
        <mxCell id="PZR-hnzOSEzopJRWZi3C-59" value="" style="rounded=0;whiteSpace=wrap;html=1;strokeWidth=2;fillStyle=hatch;fillColor=#000000;" parent="1" vertex="1">
          <mxGeometry x="477" y="-750" width="10" height="30" as="geometry" />
        </mxCell>
        <mxCell id="PZR-hnzOSEzopJRWZi3C-60" value="" style="rounded=0;whiteSpace=wrap;html=1;strokeWidth=2;fillStyle=hatch;fillColor=#000000;" parent="1" vertex="1">
          <mxGeometry x="601" y="-750" width="10" height="30" as="geometry" />
        </mxCell>
        <mxCell id="PZR-hnzOSEzopJRWZi3C-61" value="" style="rounded=0;whiteSpace=wrap;html=1;strokeWidth=2;fillStyle=hatch;fillColor=#000000;" parent="1" vertex="1">
          <mxGeometry x="668" y="-750" width="10" height="30" as="geometry" />
        </mxCell>
        <mxCell id="PZR-hnzOSEzopJRWZi3C-62" value="" style="endArrow=none;html=1;rounded=0;strokeWidth=2;" parent="1" edge="1">
          <mxGeometry width="50" height="50" relative="1" as="geometry">
            <mxPoint x="164.5" y="-750" as="sourcePoint" />
            <mxPoint x="164.5" y="-840" as="targetPoint" />
          </mxGeometry>
        </mxCell>
        <mxCell id="PZR-hnzOSEzopJRWZi3C-63" value="" style="endArrow=none;html=1;rounded=0;strokeWidth=2;" parent="1" edge="1">
          <mxGeometry width="50" height="50" relative="1" as="geometry">
            <mxPoint x="241" y="-750" as="sourcePoint" />
            <mxPoint x="240.5" y="-840" as="targetPoint" />
          </mxGeometry>
        </mxCell>
        <mxCell id="PZR-hnzOSEzopJRWZi3C-64" value="" style="endArrow=none;html=1;rounded=0;strokeWidth=2;" parent="1" edge="1">
          <mxGeometry width="50" height="50" relative="1" as="geometry">
            <mxPoint x="320" y="-750" as="sourcePoint" />
            <mxPoint x="320" y="-840" as="targetPoint" />
          </mxGeometry>
        </mxCell>
        <mxCell id="PZR-hnzOSEzopJRWZi3C-65" value="" style="endArrow=none;html=1;rounded=0;strokeWidth=2;" parent="1" edge="1">
          <mxGeometry width="50" height="50" relative="1" as="geometry">
            <mxPoint x="401" y="-750" as="sourcePoint" />
            <mxPoint x="401" y="-840" as="targetPoint" />
          </mxGeometry>
        </mxCell>
        <mxCell id="PZR-hnzOSEzopJRWZi3C-66" value="" style="endArrow=none;html=1;rounded=0;strokeWidth=2;" parent="1" edge="1">
          <mxGeometry width="50" height="50" relative="1" as="geometry">
            <mxPoint x="480" y="-750" as="sourcePoint" />
            <mxPoint x="480" y="-840" as="targetPoint" />
          </mxGeometry>
        </mxCell>
        <mxCell id="PZR-hnzOSEzopJRWZi3C-67" value="" style="endArrow=none;html=1;rounded=0;strokeWidth=2;" parent="1" edge="1">
          <mxGeometry width="50" height="50" relative="1" as="geometry">
            <mxPoint x="560" y="-750" as="sourcePoint" />
            <mxPoint x="560" y="-840" as="targetPoint" />
          </mxGeometry>
        </mxCell>
        <mxCell id="PZR-hnzOSEzopJRWZi3C-68" value="" style="endArrow=none;html=1;rounded=0;strokeWidth=2;" parent="1" edge="1">
          <mxGeometry width="50" height="50" relative="1" as="geometry">
            <mxPoint x="644.5" y="-750" as="sourcePoint" />
            <mxPoint x="644.5" y="-840" as="targetPoint" />
          </mxGeometry>
        </mxCell>
        <mxCell id="PZR-hnzOSEzopJRWZi3C-69" value="" style="rounded=0;whiteSpace=wrap;html=1;strokeWidth=2;fillStyle=hatch;fillColor=#000000;" parent="1" vertex="1">
          <mxGeometry x="350" y="-750" width="10" height="30" as="geometry" />
        </mxCell>
        <mxCell id="PZR-hnzOSEzopJRWZi3C-70" value="" style="rounded=0;whiteSpace=wrap;html=1;strokeWidth=2;fillStyle=hatch;fillColor=#000000;" parent="1" vertex="1">
          <mxGeometry x="539" y="-750" width="10" height="30" as="geometry" />
        </mxCell>
        <mxCell id="PZR-hnzOSEzopJRWZi3C-77" value="" style="rounded=0;whiteSpace=wrap;html=1;strokeWidth=2;fillStyle=hatch;fillColor=#000000;" parent="1" vertex="1">
          <mxGeometry x="160" y="-920" width="507" height="40" as="geometry" />
        </mxCell>
        <mxCell id="PZR-hnzOSEzopJRWZi3C-78" value="" style="rounded=0;whiteSpace=wrap;html=1;strokeWidth=2;fillColor=#000000;fillStyle=hatch;" parent="1" vertex="1">
          <mxGeometry x="160" y="-950" width="10" height="30" as="geometry" />
        </mxCell>
        <mxCell id="PZR-hnzOSEzopJRWZi3C-79" value="" style="rounded=0;whiteSpace=wrap;html=1;strokeWidth=2;fillColor=#000000;fillStyle=hatch;" parent="1" vertex="1">
          <mxGeometry x="217" y="-950" width="10" height="30" as="geometry" />
        </mxCell>
        <mxCell id="PZR-hnzOSEzopJRWZi3C-82" value="" style="rounded=0;whiteSpace=wrap;html=1;strokeWidth=2;fillColor=#000000;fillStyle=hatch;" parent="1" vertex="1">
          <mxGeometry x="383" y="-950" width="10" height="30" as="geometry" />
        </mxCell>
        <mxCell id="PZR-hnzOSEzopJRWZi3C-83" value="" style="rounded=0;whiteSpace=wrap;html=1;strokeWidth=2;fillColor=#000000;fillStyle=hatch;" parent="1" vertex="1">
          <mxGeometry x="551" y="-950" width="10" height="30" as="geometry" />
        </mxCell>
        <mxCell id="PZR-hnzOSEzopJRWZi3C-84" value="" style="rounded=0;whiteSpace=wrap;html=1;strokeWidth=2;fillColor=#000000;fillStyle=hatch;" parent="1" vertex="1">
          <mxGeometry x="603" y="-950" width="10" height="30" as="geometry" />
        </mxCell>
        <mxCell id="PZR-hnzOSEzopJRWZi3C-85" value="" style="endArrow=none;html=1;rounded=0;strokeWidth=2;" parent="1" edge="1">
          <mxGeometry width="50" height="50" relative="1" as="geometry">
            <mxPoint x="164.5" y="-950" as="sourcePoint" />
            <mxPoint x="164.5" y="-1040" as="targetPoint" />
          </mxGeometry>
        </mxCell>
        <mxCell id="PZR-hnzOSEzopJRWZi3C-86" value="" style="endArrow=none;html=1;rounded=0;exitX=0.25;exitY=0;exitDx=0;exitDy=0;strokeWidth=2;" parent="1" edge="1">
          <mxGeometry width="50" height="50" relative="1" as="geometry">
            <mxPoint x="242.5" y="-950" as="sourcePoint" />
            <mxPoint x="240.5" y="-1040" as="targetPoint" />
          </mxGeometry>
        </mxCell>
        <mxCell id="PZR-hnzOSEzopJRWZi3C-87" value="" style="endArrow=none;html=1;rounded=0;exitX=0;exitY=0;exitDx=0;exitDy=0;strokeWidth=2;" parent="1" edge="1">
          <mxGeometry width="50" height="50" relative="1" as="geometry">
            <mxPoint x="320" y="-950" as="sourcePoint" />
            <mxPoint x="320" y="-1040" as="targetPoint" />
          </mxGeometry>
        </mxCell>
        <mxCell id="PZR-hnzOSEzopJRWZi3C-88" value="" style="endArrow=none;html=1;rounded=0;strokeWidth=2;" parent="1" edge="1">
          <mxGeometry width="50" height="50" relative="1" as="geometry">
            <mxPoint x="400" y="-950" as="sourcePoint" />
            <mxPoint x="400" y="-1040" as="targetPoint" />
          </mxGeometry>
        </mxCell>
        <mxCell id="PZR-hnzOSEzopJRWZi3C-89" value="" style="endArrow=none;html=1;rounded=0;strokeWidth=2;" parent="1" edge="1">
          <mxGeometry width="50" height="50" relative="1" as="geometry">
            <mxPoint x="480" y="-950" as="sourcePoint" />
            <mxPoint x="480" y="-1040" as="targetPoint" />
          </mxGeometry>
        </mxCell>
        <mxCell id="PZR-hnzOSEzopJRWZi3C-90" value="" style="endArrow=none;html=1;rounded=0;strokeWidth=2;" parent="1" edge="1">
          <mxGeometry width="50" height="50" relative="1" as="geometry">
            <mxPoint x="560" y="-950" as="sourcePoint" />
            <mxPoint x="560" y="-1040" as="targetPoint" />
          </mxGeometry>
        </mxCell>
        <mxCell id="PZR-hnzOSEzopJRWZi3C-91" value="" style="endArrow=none;html=1;rounded=0;strokeWidth=2;" parent="1" edge="1">
          <mxGeometry width="50" height="50" relative="1" as="geometry">
            <mxPoint x="638" y="-950" as="sourcePoint" />
            <mxPoint x="638" y="-1040" as="targetPoint" />
          </mxGeometry>
        </mxCell>
        <mxCell id="PZR-hnzOSEzopJRWZi3C-93" value="" style="rounded=0;whiteSpace=wrap;html=1;strokeWidth=2;fillColor=#000000;fillStyle=hatch;" parent="1" vertex="1">
          <mxGeometry x="493" y="-950" width="10" height="30" as="geometry" />
        </mxCell>
        <mxCell id="PZR-hnzOSEzopJRWZi3C-100" value="" style="rounded=0;whiteSpace=wrap;html=1;strokeWidth=2;fillColor=#000000;fillStyle=hatch;" parent="1" vertex="1">
          <mxGeometry x="329" y="-950" width="10" height="30" as="geometry" />
        </mxCell>
        <mxCell id="PZR-hnzOSEzopJRWZi3C-101" value="" style="rounded=0;whiteSpace=wrap;html=1;strokeWidth=2;fillColor=#000000;fillStyle=hatch;" parent="1" vertex="1">
          <mxGeometry x="440" y="-950" width="10" height="30" as="geometry" />
        </mxCell>
        <mxCell id="PZR-hnzOSEzopJRWZi3C-102" value="" style="rounded=0;whiteSpace=wrap;html=1;strokeWidth=2;fillColor=#000000;fillStyle=hatch;" parent="1" vertex="1">
          <mxGeometry x="272" y="-950" width="10" height="30" as="geometry" />
        </mxCell>
        <mxCell id="PZR-hnzOSEzopJRWZi3C-109" value="" style="rounded=0;whiteSpace=wrap;html=1;strokeWidth=2;fillStyle=hatch;fillColor=#000000;" parent="1" vertex="1">
          <mxGeometry x="160" y="200" width="500" height="40" as="geometry" />
        </mxCell>
        <mxCell id="PZR-hnzOSEzopJRWZi3C-110" value="" style="rounded=0;whiteSpace=wrap;html=1;strokeWidth=2;fillStyle=hatch;fillColor=#000000;" parent="1" vertex="1">
          <mxGeometry x="198" y="170" width="10" height="30" as="geometry" />
        </mxCell>
        <mxCell id="PZR-hnzOSEzopJRWZi3C-111" value="" style="rounded=0;whiteSpace=wrap;html=1;strokeWidth=2;fillStyle=hatch;fillColor=#000000;" parent="1" vertex="1">
          <mxGeometry x="338" y="170" width="10" height="30" as="geometry" />
        </mxCell>
        <mxCell id="PZR-hnzOSEzopJRWZi3C-114" value="" style="endArrow=none;html=1;rounded=0;strokeWidth=2;" parent="1" edge="1">
          <mxGeometry width="50" height="50" relative="1" as="geometry">
            <mxPoint x="203" y="170" as="sourcePoint" />
            <mxPoint x="203.5" y="140" as="targetPoint" />
          </mxGeometry>
        </mxCell>
        <mxCell id="PZR-hnzOSEzopJRWZi3C-115" value="" style="endArrow=none;html=1;rounded=0;strokeWidth=2;" parent="1" edge="1">
          <mxGeometry width="50" height="50" relative="1" as="geometry">
            <mxPoint x="476" y="170" as="sourcePoint" />
            <mxPoint x="476.5" y="140" as="targetPoint" />
          </mxGeometry>
        </mxCell>
        <mxCell id="PZR-hnzOSEzopJRWZi3C-117" value="" style="endArrow=none;html=1;rounded=0;strokeWidth=2;" parent="1" edge="1">
          <mxGeometry width="50" height="50" relative="1" as="geometry">
            <mxPoint x="615" y="170" as="sourcePoint" />
            <mxPoint x="615.5" y="140" as="targetPoint" />
          </mxGeometry>
        </mxCell>
        <mxCell id="PZR-hnzOSEzopJRWZi3C-118" value="" style="endArrow=none;html=1;rounded=0;strokeWidth=2;" parent="1" edge="1">
          <mxGeometry width="50" height="50" relative="1" as="geometry">
            <mxPoint x="203" y="140" as="sourcePoint" />
            <mxPoint x="243" y="120" as="targetPoint" />
          </mxGeometry>
        </mxCell>
        <mxCell id="PZR-hnzOSEzopJRWZi3C-119" value="" style="endArrow=none;html=1;rounded=0;strokeWidth=2;" parent="1" edge="1">
          <mxGeometry width="50" height="50" relative="1" as="geometry">
            <mxPoint x="615" y="140" as="sourcePoint" />
            <mxPoint x="655" y="120" as="targetPoint" />
          </mxGeometry>
        </mxCell>
        <mxCell id="PZR-hnzOSEzopJRWZi3C-120" value="" style="endArrow=none;html=1;rounded=0;strokeWidth=2;" parent="1" edge="1">
          <mxGeometry width="50" height="50" relative="1" as="geometry">
            <mxPoint x="476" y="140" as="sourcePoint" />
            <mxPoint x="516" y="120" as="targetPoint" />
          </mxGeometry>
        </mxCell>
        <mxCell id="PZR-hnzOSEzopJRWZi3C-121" value="" style="endArrow=none;html=1;rounded=0;strokeWidth=2;" parent="1" edge="1">
          <mxGeometry width="50" height="50" relative="1" as="geometry">
            <mxPoint x="163" y="120" as="sourcePoint" />
            <mxPoint x="203" y="140" as="targetPoint" />
          </mxGeometry>
        </mxCell>
        <mxCell id="PZR-hnzOSEzopJRWZi3C-122" value="" style="endArrow=none;html=1;rounded=0;strokeWidth=2;" parent="1" edge="1">
          <mxGeometry width="50" height="50" relative="1" as="geometry">
            <mxPoint x="575" y="120" as="sourcePoint" />
            <mxPoint x="615" y="140" as="targetPoint" />
          </mxGeometry>
        </mxCell>
        <mxCell id="PZR-hnzOSEzopJRWZi3C-123" value="" style="endArrow=none;html=1;rounded=0;strokeWidth=2;" parent="1" edge="1">
          <mxGeometry width="50" height="50" relative="1" as="geometry">
            <mxPoint x="436" y="120" as="sourcePoint" />
            <mxPoint x="476" y="140" as="targetPoint" />
          </mxGeometry>
        </mxCell>
        <mxCell id="PZR-hnzOSEzopJRWZi3C-124" value="" style="endArrow=none;html=1;rounded=0;strokeWidth=2;" parent="1" edge="1">
          <mxGeometry width="50" height="50" relative="1" as="geometry">
            <mxPoint x="163" y="120" as="sourcePoint" />
            <mxPoint x="163" y="40" as="targetPoint" />
          </mxGeometry>
        </mxCell>
        <mxCell id="PZR-hnzOSEzopJRWZi3C-125" value="" style="endArrow=none;html=1;rounded=0;strokeWidth=2;" parent="1" edge="1">
          <mxGeometry width="50" height="50" relative="1" as="geometry">
            <mxPoint x="243" y="120" as="sourcePoint" />
            <mxPoint x="243" y="40" as="targetPoint" />
          </mxGeometry>
        </mxCell>
        <mxCell id="PZR-hnzOSEzopJRWZi3C-126" value="" style="endArrow=none;html=1;rounded=0;strokeWidth=2;" parent="1" edge="1">
          <mxGeometry width="50" height="50" relative="1" as="geometry">
            <mxPoint x="436" y="120" as="sourcePoint" />
            <mxPoint x="436" y="40" as="targetPoint" />
          </mxGeometry>
        </mxCell>
        <mxCell id="PZR-hnzOSEzopJRWZi3C-127" value="" style="endArrow=none;html=1;rounded=0;strokeWidth=2;" parent="1" edge="1">
          <mxGeometry width="50" height="50" relative="1" as="geometry">
            <mxPoint x="516" y="120" as="sourcePoint" />
            <mxPoint x="516" y="40" as="targetPoint" />
          </mxGeometry>
        </mxCell>
        <mxCell id="PZR-hnzOSEzopJRWZi3C-128" value="" style="endArrow=none;html=1;rounded=0;strokeWidth=2;" parent="1" edge="1">
          <mxGeometry width="50" height="50" relative="1" as="geometry">
            <mxPoint x="575" y="120" as="sourcePoint" />
            <mxPoint x="575" y="40" as="targetPoint" />
          </mxGeometry>
        </mxCell>
        <mxCell id="PZR-hnzOSEzopJRWZi3C-129" value="" style="endArrow=none;html=1;rounded=0;strokeWidth=2;" parent="1" edge="1">
          <mxGeometry width="50" height="50" relative="1" as="geometry">
            <mxPoint x="655" y="120" as="sourcePoint" />
            <mxPoint x="655" y="40" as="targetPoint" />
          </mxGeometry>
        </mxCell>
        <mxCell id="PZR-hnzOSEzopJRWZi3C-131" value="&lt;font style=&quot;font-size: 24px;&quot;&gt;1x&lt;/font&gt;" style="text;html=1;align=center;verticalAlign=middle;resizable=0;points=[];autosize=1;strokeColor=none;fillColor=none;strokeWidth=2;" parent="1" vertex="1">
          <mxGeometry x="379" y="-520" width="50" height="40" as="geometry" />
        </mxCell>
        <mxCell id="PZR-hnzOSEzopJRWZi3C-132" value="&lt;font style=&quot;font-size: 24px;&quot;&gt;.5x&lt;/font&gt;" style="text;html=1;align=center;verticalAlign=middle;resizable=0;points=[];autosize=1;strokeColor=none;fillColor=none;strokeWidth=2;" parent="1" vertex="1">
          <mxGeometry x="384.5" y="-920" width="60" height="40" as="geometry" />
        </mxCell>
        <mxCell id="PZR-hnzOSEzopJRWZi3C-133" value="&lt;font style=&quot;font-size: 24px;&quot;&gt;1.5x&lt;/font&gt;" style="text;html=1;align=center;verticalAlign=middle;resizable=0;points=[];autosize=1;strokeColor=none;fillColor=none;strokeWidth=2;" parent="1" vertex="1">
          <mxGeometry x="360" y="-320" width="70" height="40" as="geometry" />
        </mxCell>
        <mxCell id="PZR-hnzOSEzopJRWZi3C-134" value="&lt;font style=&quot;font-size: 24px;&quot;&gt;.75x&lt;/font&gt;" style="text;html=1;align=center;verticalAlign=middle;resizable=0;points=[];autosize=1;strokeColor=none;fillColor=none;strokeWidth=2;" parent="1" vertex="1">
          <mxGeometry x="390" y="-720" width="70" height="40" as="geometry" />
        </mxCell>
        <mxCell id="PZR-hnzOSEzopJRWZi3C-135" value="&lt;font style=&quot;font-size: 24px;&quot;&gt;3x&lt;/font&gt;" style="text;html=1;align=center;verticalAlign=middle;resizable=0;points=[];autosize=1;strokeColor=none;fillColor=none;strokeWidth=2;" parent="1" vertex="1">
          <mxGeometry x="385" y="200" width="50" height="40" as="geometry" />
        </mxCell>
        <mxCell id="PZR-hnzOSEzopJRWZi3C-136" value="&lt;font style=&quot;font-size: 24px;&quot;&gt;2x&lt;/font&gt;" style="text;html=1;align=center;verticalAlign=middle;resizable=0;points=[];autosize=1;strokeColor=none;fillColor=none;strokeWidth=2;" parent="1" vertex="1">
          <mxGeometry x="380" y="-120" width="50" height="40" as="geometry" />
        </mxCell>
        <mxCell id="AGxPbsey3el3hWgE16WN-21" value="" style="rounded=0;whiteSpace=wrap;html=1;strokeWidth=2;fillStyle=hatch;fillColor=#000000;" parent="1" vertex="1">
          <mxGeometry x="159" y="480" width="511" height="40" as="geometry" />
        </mxCell>
        <mxCell id="AGxPbsey3el3hWgE16WN-22" value="" style="rounded=0;whiteSpace=wrap;html=1;strokeWidth=2;fillStyle=hatch;fillColor=#000000;" parent="1" vertex="1">
          <mxGeometry x="170" y="450" width="10" height="30" as="geometry" />
        </mxCell>
        <mxCell id="AGxPbsey3el3hWgE16WN-23" value="" style="rounded=0;whiteSpace=wrap;html=1;strokeWidth=2;fillStyle=hatch;fillColor=#000000;" parent="1" vertex="1">
          <mxGeometry x="330" y="450" width="10" height="30" as="geometry" />
        </mxCell>
        <mxCell id="AGxPbsey3el3hWgE16WN-24" value="" style="rounded=0;whiteSpace=wrap;html=1;strokeWidth=2;fillStyle=hatch;fillColor=#000000;" parent="1" vertex="1">
          <mxGeometry x="650" y="450" width="10" height="30" as="geometry" />
        </mxCell>
        <mxCell id="AGxPbsey3el3hWgE16WN-25" value="" style="endArrow=none;html=1;rounded=0;strokeWidth=2;" parent="1" edge="1">
          <mxGeometry width="50" height="50" relative="1" as="geometry">
            <mxPoint x="175" y="450" as="sourcePoint" />
            <mxPoint x="190" y="410" as="targetPoint" />
          </mxGeometry>
        </mxCell>
        <mxCell id="AGxPbsey3el3hWgE16WN-26" value="" style="endArrow=none;html=1;rounded=0;strokeWidth=2;" parent="1" edge="1">
          <mxGeometry width="50" height="50" relative="1" as="geometry">
            <mxPoint x="336" y="450" as="sourcePoint" />
            <mxPoint x="321" y="410" as="targetPoint" />
          </mxGeometry>
        </mxCell>
        <mxCell id="AGxPbsey3el3hWgE16WN-28" value="" style="endArrow=none;html=1;rounded=0;strokeWidth=2;" parent="1" edge="1">
          <mxGeometry width="50" height="50" relative="1" as="geometry">
            <mxPoint x="190" y="410" as="sourcePoint" />
            <mxPoint x="230" y="390" as="targetPoint" />
          </mxGeometry>
        </mxCell>
        <mxCell id="AGxPbsey3el3hWgE16WN-30" value="" style="endArrow=none;html=1;rounded=0;strokeWidth=2;" parent="1" edge="1">
          <mxGeometry width="50" height="50" relative="1" as="geometry">
            <mxPoint x="321" y="410" as="sourcePoint" />
            <mxPoint x="361" y="390" as="targetPoint" />
          </mxGeometry>
        </mxCell>
        <mxCell id="AGxPbsey3el3hWgE16WN-31" value="" style="endArrow=none;html=1;rounded=0;strokeWidth=2;" parent="1" edge="1">
          <mxGeometry width="50" height="50" relative="1" as="geometry">
            <mxPoint x="150" y="390" as="sourcePoint" />
            <mxPoint x="190" y="410" as="targetPoint" />
          </mxGeometry>
        </mxCell>
        <mxCell id="AGxPbsey3el3hWgE16WN-33" value="" style="endArrow=none;html=1;rounded=0;strokeWidth=2;" parent="1" edge="1">
          <mxGeometry width="50" height="50" relative="1" as="geometry">
            <mxPoint x="281" y="390" as="sourcePoint" />
            <mxPoint x="321" y="410" as="targetPoint" />
          </mxGeometry>
        </mxCell>
        <mxCell id="AGxPbsey3el3hWgE16WN-34" value="" style="endArrow=none;html=1;rounded=0;strokeWidth=2;" parent="1" edge="1">
          <mxGeometry width="50" height="50" relative="1" as="geometry">
            <mxPoint x="150" y="390" as="sourcePoint" />
            <mxPoint x="136" y="310" as="targetPoint" />
          </mxGeometry>
        </mxCell>
        <mxCell id="AGxPbsey3el3hWgE16WN-35" value="" style="endArrow=none;html=1;rounded=0;strokeWidth=2;" parent="1" edge="1">
          <mxGeometry width="50" height="50" relative="1" as="geometry">
            <mxPoint x="230" y="390" as="sourcePoint" />
            <mxPoint x="246" y="310" as="targetPoint" />
          </mxGeometry>
        </mxCell>
        <mxCell id="AGxPbsey3el3hWgE16WN-36" value="" style="endArrow=none;html=1;rounded=0;strokeWidth=2;" parent="1" edge="1">
          <mxGeometry width="50" height="50" relative="1" as="geometry">
            <mxPoint x="281" y="390" as="sourcePoint" />
            <mxPoint x="266" y="310" as="targetPoint" />
          </mxGeometry>
        </mxCell>
        <mxCell id="AGxPbsey3el3hWgE16WN-37" value="" style="endArrow=none;html=1;rounded=0;strokeWidth=2;" parent="1" edge="1">
          <mxGeometry width="50" height="50" relative="1" as="geometry">
            <mxPoint x="361" y="390" as="sourcePoint" />
            <mxPoint x="376" y="310" as="targetPoint" />
          </mxGeometry>
        </mxCell>
        <mxCell id="AGxPbsey3el3hWgE16WN-40" value="&lt;font style=&quot;font-size: 24px;&quot;&gt;4x&lt;/font&gt;" style="text;html=1;align=center;verticalAlign=middle;resizable=0;points=[];autosize=1;strokeColor=none;fillColor=none;strokeWidth=2;" parent="1" vertex="1">
          <mxGeometry x="389.5" y="480" width="50" height="40" as="geometry" />
        </mxCell>
        <mxCell id="63mcx1-a2PL6KW7PyDGQ-3" value="" style="endArrow=none;html=1;rounded=0;entryX=0.5;entryY=0;entryDx=0;entryDy=0;strokeWidth=2;" parent="1" target="MHsT-8hFKqZ9VgxETxwt-5" edge="1">
          <mxGeometry width="50" height="50" relative="1" as="geometry">
            <mxPoint x="160" y="-950" as="sourcePoint" />
            <mxPoint x="210" y="-1000" as="targetPoint" />
          </mxGeometry>
        </mxCell>
        <mxCell id="63mcx1-a2PL6KW7PyDGQ-4" value="" style="endArrow=none;html=1;rounded=0;entryX=0.25;entryY=0;entryDx=0;entryDy=0;strokeWidth=2;" parent="1" target="PZR-hnzOSEzopJRWZi3C-58" edge="1">
          <mxGeometry width="50" height="50" relative="1" as="geometry">
            <mxPoint x="230" y="-750" as="sourcePoint" />
            <mxPoint x="280" y="-800" as="targetPoint" />
          </mxGeometry>
        </mxCell>
        <mxCell id="63mcx1-a2PL6KW7PyDGQ-5" value="" style="endArrow=none;html=1;rounded=0;entryX=0.5;entryY=0;entryDx=0;entryDy=0;strokeWidth=2;" parent="1" target="PZR-hnzOSEzopJRWZi3C-61" edge="1">
          <mxGeometry width="50" height="50" relative="1" as="geometry">
            <mxPoint x="540" y="-750" as="sourcePoint" />
            <mxPoint x="560" y="-780" as="targetPoint" />
          </mxGeometry>
        </mxCell>
        <mxCell id="MHsT-8hFKqZ9VgxETxwt-5" value="" style="rounded=0;whiteSpace=wrap;html=1;strokeWidth=2;fillColor=#000000;fillStyle=hatch;" vertex="1" parent="1">
          <mxGeometry x="657" y="-950" width="10" height="30" as="geometry" />
        </mxCell>
        <mxCell id="MHsT-8hFKqZ9VgxETxwt-6" value="" style="rounded=0;whiteSpace=wrap;html=1;strokeWidth=2;fillStyle=hatch;fillColor=#000000;" vertex="1" parent="1">
          <mxGeometry x="613" y="-350" width="10" height="30" as="geometry" />
        </mxCell>
        <mxCell id="MHsT-8hFKqZ9VgxETxwt-7" value="" style="endArrow=none;html=1;rounded=0;strokeWidth=2;" edge="1" parent="1">
          <mxGeometry width="50" height="50" relative="1" as="geometry">
            <mxPoint x="617.5" y="-350" as="sourcePoint" />
            <mxPoint x="643" y="-440" as="targetPoint" />
          </mxGeometry>
        </mxCell>
        <mxCell id="MHsT-8hFKqZ9VgxETxwt-8" value="" style="rounded=0;whiteSpace=wrap;html=1;strokeWidth=2;fillStyle=hatch;fillColor=#000000;" vertex="1" parent="1">
          <mxGeometry x="621" y="-150" width="10" height="30" as="geometry" />
        </mxCell>
        <mxCell id="MHsT-8hFKqZ9VgxETxwt-9" value="" style="endArrow=none;html=1;rounded=0;strokeWidth=2;" edge="1" parent="1">
          <mxGeometry width="50" height="50" relative="1" as="geometry">
            <mxPoint x="513.5" y="-150" as="sourcePoint" />
            <mxPoint x="569" y="-240" as="targetPoint" />
          </mxGeometry>
        </mxCell>
        <mxCell id="MHsT-8hFKqZ9VgxETxwt-10" value="" style="rounded=0;whiteSpace=wrap;html=1;strokeWidth=2;fillStyle=hatch;fillColor=#000000;" vertex="1" parent="1">
          <mxGeometry x="470" y="170" width="10" height="30" as="geometry" />
        </mxCell>
        <mxCell id="MHsT-8hFKqZ9VgxETxwt-11" value="" style="rounded=0;whiteSpace=wrap;html=1;strokeWidth=2;fillStyle=hatch;fillColor=#000000;" vertex="1" parent="1">
          <mxGeometry x="610" y="170" width="10" height="30" as="geometry" />
        </mxCell>
        <mxCell id="MHsT-8hFKqZ9VgxETxwt-12" value="" style="endArrow=none;html=1;rounded=0;strokeWidth=2;" edge="1" parent="1">
          <mxGeometry width="50" height="50" relative="1" as="geometry">
            <mxPoint x="342" y="170" as="sourcePoint" />
            <mxPoint x="342.5" y="140" as="targetPoint" />
          </mxGeometry>
        </mxCell>
        <mxCell id="MHsT-8hFKqZ9VgxETxwt-13" value="" style="endArrow=none;html=1;rounded=0;strokeWidth=2;" edge="1" parent="1">
          <mxGeometry width="50" height="50" relative="1" as="geometry">
            <mxPoint x="342" y="140" as="sourcePoint" />
            <mxPoint x="382" y="120" as="targetPoint" />
          </mxGeometry>
        </mxCell>
        <mxCell id="MHsT-8hFKqZ9VgxETxwt-14" value="" style="endArrow=none;html=1;rounded=0;strokeWidth=2;" edge="1" parent="1">
          <mxGeometry width="50" height="50" relative="1" as="geometry">
            <mxPoint x="302" y="120" as="sourcePoint" />
            <mxPoint x="342" y="140" as="targetPoint" />
          </mxGeometry>
        </mxCell>
        <mxCell id="MHsT-8hFKqZ9VgxETxwt-15" value="" style="endArrow=none;html=1;rounded=0;strokeWidth=2;" edge="1" parent="1">
          <mxGeometry width="50" height="50" relative="1" as="geometry">
            <mxPoint x="302" y="120" as="sourcePoint" />
            <mxPoint x="302" y="40" as="targetPoint" />
          </mxGeometry>
        </mxCell>
        <mxCell id="MHsT-8hFKqZ9VgxETxwt-16" value="" style="endArrow=none;html=1;rounded=0;strokeWidth=2;" edge="1" parent="1">
          <mxGeometry width="50" height="50" relative="1" as="geometry">
            <mxPoint x="382" y="120" as="sourcePoint" />
            <mxPoint x="382" y="40" as="targetPoint" />
          </mxGeometry>
        </mxCell>
        <mxCell id="MHsT-8hFKqZ9VgxETxwt-17" value="" style="rounded=0;whiteSpace=wrap;html=1;strokeWidth=2;fillStyle=hatch;fillColor=#000000;" vertex="1" parent="1">
          <mxGeometry x="490" y="450" width="10" height="30" as="geometry" />
        </mxCell>
        <mxCell id="MHsT-8hFKqZ9VgxETxwt-18" value="" style="endArrow=none;html=1;rounded=0;strokeWidth=2;" edge="1" parent="1">
          <mxGeometry width="50" height="50" relative="1" as="geometry">
            <mxPoint x="497" y="450" as="sourcePoint" />
            <mxPoint x="482" y="410" as="targetPoint" />
          </mxGeometry>
        </mxCell>
        <mxCell id="MHsT-8hFKqZ9VgxETxwt-19" value="" style="endArrow=none;html=1;rounded=0;strokeWidth=2;" edge="1" parent="1">
          <mxGeometry width="50" height="50" relative="1" as="geometry">
            <mxPoint x="482" y="410" as="sourcePoint" />
            <mxPoint x="522" y="390" as="targetPoint" />
          </mxGeometry>
        </mxCell>
        <mxCell id="MHsT-8hFKqZ9VgxETxwt-20" value="" style="endArrow=none;html=1;rounded=0;strokeWidth=2;" edge="1" parent="1">
          <mxGeometry width="50" height="50" relative="1" as="geometry">
            <mxPoint x="442" y="390" as="sourcePoint" />
            <mxPoint x="482" y="410" as="targetPoint" />
          </mxGeometry>
        </mxCell>
        <mxCell id="MHsT-8hFKqZ9VgxETxwt-21" value="" style="endArrow=none;html=1;rounded=0;strokeWidth=2;" edge="1" parent="1">
          <mxGeometry width="50" height="50" relative="1" as="geometry">
            <mxPoint x="442" y="390" as="sourcePoint" />
            <mxPoint x="427" y="310" as="targetPoint" />
          </mxGeometry>
        </mxCell>
        <mxCell id="MHsT-8hFKqZ9VgxETxwt-22" value="" style="endArrow=none;html=1;rounded=0;strokeWidth=2;" edge="1" parent="1">
          <mxGeometry width="50" height="50" relative="1" as="geometry">
            <mxPoint x="522" y="390" as="sourcePoint" />
            <mxPoint x="537" y="310" as="targetPoint" />
          </mxGeometry>
        </mxCell>
        <mxCell id="MHsT-8hFKqZ9VgxETxwt-23" value="" style="endArrow=none;html=1;rounded=0;strokeWidth=2;" edge="1" parent="1">
          <mxGeometry width="50" height="50" relative="1" as="geometry">
            <mxPoint x="657" y="451" as="sourcePoint" />
            <mxPoint x="642" y="411" as="targetPoint" />
          </mxGeometry>
        </mxCell>
        <mxCell id="MHsT-8hFKqZ9VgxETxwt-24" value="" style="endArrow=none;html=1;rounded=0;strokeWidth=2;" edge="1" parent="1">
          <mxGeometry width="50" height="50" relative="1" as="geometry">
            <mxPoint x="642" y="411" as="sourcePoint" />
            <mxPoint x="682" y="391" as="targetPoint" />
          </mxGeometry>
        </mxCell>
        <mxCell id="MHsT-8hFKqZ9VgxETxwt-25" value="" style="endArrow=none;html=1;rounded=0;strokeWidth=2;" edge="1" parent="1">
          <mxGeometry width="50" height="50" relative="1" as="geometry">
            <mxPoint x="602" y="391" as="sourcePoint" />
            <mxPoint x="642" y="411" as="targetPoint" />
          </mxGeometry>
        </mxCell>
        <mxCell id="MHsT-8hFKqZ9VgxETxwt-26" value="" style="endArrow=none;html=1;rounded=0;strokeWidth=2;" edge="1" parent="1">
          <mxGeometry width="50" height="50" relative="1" as="geometry">
            <mxPoint x="602" y="391" as="sourcePoint" />
            <mxPoint x="587" y="311" as="targetPoint" />
          </mxGeometry>
        </mxCell>
        <mxCell id="MHsT-8hFKqZ9VgxETxwt-27" value="" style="endArrow=none;html=1;rounded=0;strokeWidth=2;" edge="1" parent="1">
          <mxGeometry width="50" height="50" relative="1" as="geometry">
            <mxPoint x="682" y="391" as="sourcePoint" />
            <mxPoint x="697" y="311" as="targetPoint" />
          </mxGeometry>
        </mxCell>
      </root>
    </mxGraphModel>
  </diagram>
</mxfile>
